<?xml version="1.0" encoding="UTF-8"?><svg id="Layer_1" xmlns="http://www.w3.org/2000/svg" viewBox="0 0 410.32 91.06"><defs><style>.cls-1,.cls-2,.cls-3,.cls-4{fill:#0ab;}.cls-2{isolation:isolate;opacity:.4;}.cls-3{stroke:#0ab;stroke-miterlimit:10;}.cls-4{font-family:Handlee-Regular, Handlee;font-size:21.29px;}</style></defs><path class="cls-3" d="M9.07,23.74c-.14,1.25-.44,3.41-.9,6.48-.46,3.07-.8,5.59-1.04,7.56-.72,5.9-1.08,10.78-1.08,14.62s.13,6.83,.4,8.96c.26,2.14,.68,4.15,1.26,6.05,.58,1.9,1.43,3.4,2.56,4.5,1.13,1.1,2.46,1.66,4,1.66,2.21,0,4.16-1.2,5.87-3.6,1.7-2.4,3.04-5.48,4-9.25,.96-3.77,1.79-7.57,2.48-11.41,.7-3.84,1.37-7.58,2.02-11.23,.65-3.65,1.26-6.14,1.84-7.49,1.3-.86,2.28-1.3,2.95-1.3s1.18,.07,1.51,.22c.29,2.3,.59,6.49,.9,12.56,.31,6.07,.74,10.79,1.3,14.15,.55,3.36,1.27,6.22,2.16,8.57,.89,2.35,2.22,4.31,4,5.87,1.78,1.56,3.83,2.34,6.16,2.34s4.24-1.08,5.72-3.24c1.49-2.16,2.57-5.04,3.24-8.64,1.2-6.43,1.8-13.07,1.8-19.91s-.58-12.18-1.73-16.02c1.2-.86,2.3-1.3,3.31-1.3s1.87,.79,2.59,2.38,1.22,3.6,1.51,6.05c.53,4.42,.79,8.42,.79,12.02s-.34,7.22-1.01,10.87c-.67,3.65-1.72,7.04-3.13,10.19-1.42,3.14-3.38,5.64-5.9,7.49-2.52,1.85-5.44,2.77-8.75,2.77-2.21-.05-4.19-.59-5.94-1.62-1.75-1.03-3.16-2.26-4.21-3.67-1.06-1.42-2.02-3.28-2.88-5.58-1.25-3.31-2.3-7.54-3.17-12.67-2.02,7.06-3.72,11.93-5.11,14.62-3.41,6.48-8.09,9.74-14.04,9.79-3.84,0-6.72-1.39-8.64-4.18-1.68-2.5-2.74-6-3.17-10.51-.14-1.92-.22-4.1-.22-6.55,0-8.02,1.3-18.24,3.89-30.67,1.25-.72,2.24-1.08,2.99-1.08s1.31,.07,1.69,.22Z"/><path class="cls-3" d="M78.04,60.32c-.1,.96-.14,1.61-.14,1.94,0,2.88,.88,5.11,2.63,6.7,1.75,1.58,3.83,2.38,6.23,2.38s4.36-.33,5.87-1.01c1.51-.67,2.6-1.39,3.28-2.16,1.73-2.16,3.31-3.24,4.75-3.24,.53,0,1.15,.14,1.87,.43-.48,2.35-2.29,4.5-5.44,6.44-3.14,1.94-7.09,2.92-11.84,2.92-3.36,0-6.25-1.07-8.68-3.2-2.42-2.14-3.64-5.05-3.64-8.75s.73-7.28,2.2-10.76c1.46-3.48,3.58-6.46,6.34-8.93,2.76-2.47,5.57-3.71,8.42-3.71s5.16,.59,6.91,1.76c1.75,1.18,2.63,2.89,2.63,5.15,0,4.18-1.86,7.62-5.58,10.33-3.72,2.71-7.67,4.07-11.84,4.07-1.1,0-2.42-.12-3.96-.36Zm5.47-2.38c2.26,0,4.27-.72,6.05-2.16,1.77-1.44,3.04-2.95,3.78-4.54s1.12-3.02,1.12-4.32-.5-2.44-1.51-3.42c-1.01-.98-2.18-1.48-3.53-1.48-2.4,0-4.62,1.66-6.66,4.97-2.04,3.31-3.49,6.74-4.36,10.3,2.11,.43,3.82,.65,5.11,.65Z"/><path class="cls-3" d="M135.5,17.26c-1.83,16.51-2.74,28.28-2.74,35.32s.65,14.05,1.94,21.06c-.96,.96-1.8,1.44-2.52,1.44s-1.32-.1-1.8-.29c-1.01-3.55-1.61-7.42-1.8-11.59-1.15,1.82-2,3.12-2.56,3.89-.55,.77-1.5,1.9-2.84,3.38-2.45,2.88-5.35,4.32-8.71,4.32-2.54,0-4.38-1.19-5.51-3.56-1.13-2.38-1.69-5.42-1.69-9.14s.42-7.27,1.26-10.66c.84-3.38,2.29-6.31,4.36-8.78,2.06-2.47,4.61-3.71,7.63-3.71,1.82,0,3.5,.38,5.04,1.15,1.54,.77,2.59,1.8,3.17,3.1,.1-1.3,.19-3.29,.29-5.98,.1-2.69,.2-5.08,.32-7.16,.12-2.09,.32-4.21,.61-6.37,.53-4.61,1.7-6.91,3.53-6.91,.62,0,1.3,.17,2.02,.5Zm-8.39,28.51c-.6-1.06-1.4-1.84-2.41-2.34-1.01-.5-2.34-.76-4-.76s-3.2,.94-4.64,2.81c-2.83,3.7-4.25,9.05-4.25,16.06,0,2.26,.36,4.5,1.08,6.73s1.78,3.35,3.17,3.35c2.02,0,3.98-1.32,5.9-3.96,1.92-2.64,3.41-5.68,4.46-9.11,1.06-3.43,1.58-6.52,1.58-9.25,0-1.3-.3-2.47-.9-3.53Z"/><path class="cls-3" d="M169.56,17.26c-1.83,16.51-2.74,28.28-2.74,35.32s.65,14.05,1.94,21.06c-.96,.96-1.8,1.44-2.52,1.44s-1.32-.1-1.8-.29c-1.01-3.55-1.61-7.42-1.8-11.59-1.15,1.82-2,3.12-2.56,3.89-.55,.77-1.5,1.9-2.84,3.38-2.45,2.88-5.35,4.32-8.71,4.32-2.54,0-4.38-1.19-5.51-3.56-1.13-2.38-1.69-5.42-1.69-9.14s.42-7.27,1.26-10.66c.84-3.38,2.29-6.31,4.36-8.78,2.06-2.47,4.61-3.71,7.63-3.71,1.82,0,3.5,.38,5.04,1.15,1.54,.77,2.59,1.8,3.17,3.1,.1-1.3,.19-3.29,.29-5.98,.1-2.69,.2-5.08,.32-7.16,.12-2.09,.32-4.21,.61-6.37,.53-4.61,1.7-6.91,3.53-6.91,.62,0,1.3,.17,2.02,.5Zm-8.39,28.51c-.6-1.06-1.4-1.84-2.41-2.34-1.01-.5-2.34-.76-4-.76s-3.2,.94-4.64,2.81c-2.83,3.7-4.25,9.05-4.25,16.06,0,2.26,.36,4.5,1.08,6.73s1.78,3.35,3.17,3.35c2.02,0,3.98-1.32,5.9-3.96,1.92-2.64,3.41-5.68,4.46-9.11,1.06-3.43,1.58-6.52,1.58-9.25,0-1.3-.3-2.47-.9-3.53Z"/><path class="cls-3" d="M181.65,21.94c-.05,1.1-.07,2.33-.07,3.67s.07,2.74,.22,4.18c-.67,.77-1.58,1.15-2.74,1.15-1.44,0-2.16-1.15-2.16-3.46v-1.08c0-.62,.01-1.19,.04-1.69,.02-.5,.11-1.09,.25-1.76,.33-1.15,1.08-1.73,2.23-1.73s1.9,.24,2.23,.72Zm-4.61,35.28c0-9.41,.48-14.83,1.44-16.27,.33-.53,.74-.79,1.22-.79s1.27,.26,2.38,.79c-.24,4.08-.36,8.52-.36,13.32l.14,15.91c0,1.49-.32,2.53-.97,3.13-.65,.6-1.25,.9-1.8,.9s-1.12-.14-1.69-.43c-.24-6.24-.36-11.76-.36-16.56Z"/><path class="cls-3" d="M220.53,72.92c-.86,.91-1.85,1.37-2.95,1.37-2.06,0-3.6-1.1-4.61-3.31-1.01-2.21-1.6-4.9-1.76-8.06s-.28-6.34-.32-9.5c-.05-3.17-.3-5.86-.76-8.06-.46-2.21-1.31-3.31-2.56-3.31-1.68,0-3.11,1.51-4.28,4.54-1.18,3.02-2,6.38-2.48,10.08-1.34,10.32-2.64,16.1-3.89,17.35-.86,.43-1.61,.65-2.23,.65s-1.15-.07-1.58-.22c-1.01-4.42-1.66-12.02-1.94-22.82-.1-5.38-.19-8.86-.29-10.44,1.01-.67,1.87-1.01,2.59-1.01s1.3,.07,1.73,.22c.24,2.06,.37,6.29,.4,12.67,.02,6.38,.06,10.06,.11,11.02,.24-1.01,.54-2.64,.9-4.9,.36-2.26,.68-4.12,.97-5.58,.29-1.46,.74-3.18,1.37-5.15,.62-1.97,1.32-3.54,2.09-4.72,.77-1.18,1.82-2.18,3.17-3.02,1.34-.84,2.86-1.26,4.54-1.26,2.26,0,3.9,1.02,4.93,3.06,1.03,2.04,1.6,4.57,1.69,7.6,.1,3.02,.16,6.1,.18,9.22,.02,3.12,.41,5.98,1.15,8.57,.74,2.59,2.03,4.27,3.85,5.04Z"/><path class="cls-3" d="M237.81,38.93c4.37,0,7.39,1.78,9.07,5.33,.91,1.87,1.66,3.65,2.23,5.33,.58,1.68,.96,3.98,1.15,6.91,.29,4.46,.43,9.54,.43,15.23s-1.36,10.22-4.07,13.61c-2.71,3.38-6.67,5.08-11.88,5.08s-9.54-1.68-13-5.04c.96-.96,2-1.44,3.13-1.44s2.69,.49,4.68,1.48c1.99,.98,4.12,1.48,6.37,1.48s4.13-.52,5.62-1.55c1.49-1.03,2.59-2.48,3.31-4.36,1.2-3.31,1.8-7.39,1.8-12.24,0-.72-.07-3.38-.22-7.99-1.3,3.94-3.14,7.19-5.54,9.76-2.4,2.57-5.11,3.85-8.14,3.85s-5.24-1.36-6.66-4.07c-1.42-2.71-2.12-5.8-2.12-9.25s.48-6.83,1.44-10.12c.96-3.29,2.52-6.11,4.68-8.46,2.16-2.35,4.73-3.53,7.7-3.53Zm-7.63,10.94c-.62,2.11-1.08,4.1-1.37,5.98s-.43,3.76-.43,5.65,.4,4,1.19,6.3c.79,2.3,1.96,3.46,3.49,3.46,3.02,0,5.71-2.27,8.06-6.8,2.35-4.54,3.53-9.11,3.53-13.72,0-1.58-.73-3.37-2.2-5.36-1.46-1.99-3.3-2.99-5.51-2.99-1.54,0-2.89,.72-4.07,2.16-1.18,1.44-2.08,3.22-2.7,5.33Z"/><path class="cls-3" d="M282.23,25.9l-.36,31.9c0,4.94,.14,9.62,.43,14.04,2.88,.19,5.5,.29,7.85,.29l15.12-.29c2.35,0,3.53,.67,3.53,2.02,0,1.58-5.04,2.38-15.12,2.38-2.45,0-5.59-.12-9.43-.36-3.84-.24-6.17-.62-6.98-1.15-.24-5.09-.36-13.39-.36-24.91l.36-25.34c1.25-.96,2.25-1.44,3.02-1.44,1.3,0,1.94,.96,1.94,2.88Z"/><path class="cls-3" d="M387.28,72.7c.14,3.89,.62,9.38,1.44,16.49-.91,.91-1.99,1.37-3.24,1.37-.24,0-.5-.02-.79-.07-.05-1.87-.4-6.12-1.04-12.74-.65-6.62-.97-11.7-.97-15.23s.22-6.59,.65-9.18c.43-2.59,1.18-5.02,2.23-7.27,2.16-4.66,6.14-6.98,11.95-6.98,3.6,0,6.55,1.97,8.86,5.9,2.3,3.94,3.46,8.52,3.46,13.75,0,4.13-1.34,7.75-4.03,10.87-2.69,3.12-6.41,4.68-11.16,4.68-2.93,0-5.38-.53-7.34-1.58Zm9.65-29.74c-4.08,0-6.79,2.11-8.14,6.34-1.15,3.6-1.73,8.57-1.73,14.9,0,2.3,.02,4.01,.07,5.11,4.27,.91,7.17,1.37,8.71,1.37,2.78,0,4.99-1.12,6.62-3.35,1.63-2.23,2.45-4.96,2.45-8.17,0-4.75-.71-8.64-2.12-11.66-1.42-3.02-3.37-4.54-5.87-4.54Z"/><g><path class="cls-1" d="M335.5,74.71c-12.03,1.58-23.05-6.87-24.64-18.9-1.59-12.02,6.88-23.07,18.91-24.65,12.03-1.59,23.07,6.88,24.65,18.91,.95,7.22-1.74,14.43-7.18,19.26-.61-.39-1.18-.83-1.69-1.34-1.47-1.47-2.45-3.36-2.79-5.41,5.32-5.59,5.11-14.44-.48-19.76s-14.34-5.22-19.66,.49c-5.33,5.7-5.11,14.44,.48,19.76,2.3,2.19,5.29,3.54,8.46,3.8,.7,2.87,2.07,5.53,3.94,7.84Z"/><path class="cls-2" d="M338.35,31.72l4.36-8.73-4.1-3.99h-11.87l-3.99,3.88,4.36,8.73c3.69-.86,7.56-.86,11.24,.11Zm31.47,15.43c-3.79-4.7-9.34-7.64-15.37-8.12,1.77,2.74,2.88,5.79,3.63,8.87,7.12,2.97,10.48,11.15,7.52,18.26-2.97,7.12-11.15,10.48-18.26,7.52s-10.48-11.15-7.52-18.26c1.23-2.94,3.42-5.38,6.22-6.9-.12-.39-.27-.77-.42-1.14-.05-.11-.11-.25-.16-.36,0-.01-.01-.03-.02-.04-.05-.11-.11-.22-.16-.33-.12-.24-.26-.5-.39-.74-.06-.11-.12-.22-.19-.33-.01-.02-.03-.04-.04-.07-.05-.09-.11-.18-.17-.26-.02-.03-.03-.05-.05-.08-.06-.09-.11-.17-.17-.26l-.04-.07c-.15-.21-.31-.42-.47-.62l-.33-.4c-.06-.07-.26-.3-.26-.3-.06-.07-.12-.13-.18-.2l-.08-.09c-.09-.09-.18-.19-.27-.28-.36-.36-.74-.7-1.14-1.01-8.54,5.08-12.61,15.25-9.94,24.83,.5,1.8,1.23,3.63,2.18,5.24,.09,.16,.19,.32,.28,.47,.09,.15,.19,.31,.29,.46h0c.1,.15,.2,.31,.3,.45,.1,.15,.21,.3,.32,.45,.11,.15,.22,.29,.33,.44,.11,.15,.23,.3,.35,.44,7.61,9.45,21.43,10.94,30.88,3.33,9.45-7.61,10.94-21.45,3.34-30.89Z"/></g><text class="cls-4" transform="translate(2.62 15.79)"><tspan x="0" y="0">the</tspan></text></svg>